<svg width="33" height="38" viewBox="0 0 33 38" fill="none" xmlns="http://www.w3.org/2000/svg">
<g clip-path="url(#clip0_22_635)">
<path d="M14.1568 7.57313C14.1568 6.86589 14.4377 6.18761 14.9378 5.68751C15.4379 5.18742 16.1162 4.90646 16.8234 4.90646C17.5307 4.90646 18.2089 5.18742 18.709 5.68751C19.2091 6.18761 19.4901 6.86589 19.4901 7.57313C21.0213 8.29717 22.3266 9.42423 23.2662 10.8335C24.2057 12.2428 24.744 13.8812 24.8234 15.5731V19.5731C24.9238 20.4021 25.2173 21.1959 25.6805 21.8906C26.1437 22.5854 26.7635 23.1617 27.4901 23.5731H6.15676C6.88335 23.1617 7.50317 22.5854 7.96634 21.8906C8.42951 21.1959 8.72309 20.4021 8.82343 19.5731V15.5731C8.90284 13.8812 9.44116 12.2428 10.3807 10.8335C11.3202 9.42423 12.6255 8.29717 14.1568 7.57313" stroke="#032262" stroke-linecap="round" stroke-linejoin="round"/>
<path d="M12.8234 23.5731V24.9065C12.8234 25.9673 13.2449 26.9847 13.995 27.7349C14.7451 28.485 15.7626 28.9065 16.8234 28.9065C17.8843 28.9065 18.9017 28.485 19.6519 27.7349C20.402 26.9847 20.8234 25.9673 20.8234 24.9065V23.5731" stroke="#032262" stroke-linecap="round" stroke-linejoin="round"/>
</g>
<defs>
<filter id="filter0_d_22_635" x="-3.17657" y="0.906464" width="40" height="40" filterUnits="userSpaceOnUse" color-interpolation-filters="sRGB">
<feFlood flood-opacity="0" result="BackgroundImageFix"/>
<feColorMatrix in="SourceAlpha" type="matrix" values="0 0 0 0 0 0 0 0 0 0 0 0 0 0 0 0 0 0 127 0" result="hardAlpha"/>
<feOffset dy="4"/>
<feGaussianBlur stdDeviation="2"/>
<feComposite in2="hardAlpha" operator="out"/>
<feColorMatrix type="matrix" values="0 0 0 0 0 0 0 0 0 0 0 0 0 0 0 0 0 0 0.25 0"/>
<feBlend mode="normal" in2="BackgroundImageFix" result="effect1_dropShadow_22_635"/>
<feBlend mode="normal" in="SourceGraphic" in2="effect1_dropShadow_22_635" result="shape"/>
</filter>
<clipPath id="clip0_22_635">
<rect width="32" height="32" fill="white" transform="translate(0.823425 0.906464)"/>
</clipPath>
</defs>
</svg>
