<svg width="20" height="20" viewBox="0 0 20 20" fill="none" xmlns="http://www.w3.org/2000/svg">
<path d="M14 9.99997V11.5C14 12.163 14.2634 12.7989 14.7322 13.2677C15.2011 13.7366 15.837 14 16.5 14C17.163 14 17.7989 13.7366 18.2678 13.2677C18.7366 12.7989 19 12.163 19 11.5V9.99997C19.0025 8.06607 18.382 6.18281 17.2304 4.62916C16.0788 3.07551 14.4574 1.93412 12.6064 1.37407C10.7554 0.814015 8.77316 0.865092 6.95343 1.51973C5.13371 2.17437 3.57324 3.39775 2.50321 5.00865C1.43317 6.61954 0.910472 8.53226 1.01255 10.4635C1.11463 12.3947 1.83605 14.2416 3.06995 15.7307C4.30385 17.2198 5.98459 18.2719 7.86319 18.7311C9.74179 19.1902 11.7183 19.032 13.5 18.28" stroke="#032262" stroke-linecap="round" stroke-linejoin="round"/>
</svg>
