<svg width="24" height="25" viewBox="0 0 24 25" fill="none" xmlns="http://www.w3.org/2000/svg">
<path d="M12 16.0339C14.2091 16.0339 16 14.2431 16 12.0339C16 9.8248 14.2091 8.03394 12 8.03394C9.79086 8.03394 8 9.8248 8 12.0339C8 14.2431 9.79086 16.0339 12 16.0339Z" stroke="white" stroke-linecap="round" stroke-linejoin="round"/>
<path d="M16 12.0339V13.5339C16 14.1969 16.2634 14.8328 16.7322 15.3017C17.2011 15.7705 17.837 16.0339 18.5 16.0339C19.163 16.0339 19.7989 15.7705 20.2678 15.3017C20.7366 14.8328 21 14.1969 21 13.5339V12.0339C21.0025 10.1 20.382 8.21675 19.2304 6.6631C18.0788 5.10945 16.4574 3.96806 14.6064 3.408C12.7554 2.84795 10.7732 2.89903 8.95343 3.55367C7.13371 4.20831 5.57324 5.43169 4.50321 7.04258C3.43317 8.65348 2.91047 10.5662 3.01255 12.4974C3.11463 14.4286 3.83605 16.2756 5.06995 17.7647C6.30385 19.2538 7.98459 20.3058 9.86319 20.765C11.7418 21.2241 13.7183 21.066 15.5 20.3139" stroke="white" stroke-linecap="round" stroke-linejoin="round"/>
</svg>
