<svg width="68" height="68" viewBox="0 0 68 68" fill="none" xmlns="http://www.w3.org/2000/svg">
<g clip-path="url(#clip0_98_816)">
<path d="M61.0998 18.2H6.7998V66.8H61.0998V18.2Z" stroke="#132448" stroke-width="1.4242" stroke-miterlimit="10" stroke-linecap="round" stroke-linejoin="round"/>
<path d="M64.3 1.10004H4.19995V18.3H64.3V1.10004Z" stroke="#132448" stroke-width="1.4242" stroke-miterlimit="10" stroke-linecap="round" stroke-linejoin="round"/>
<path d="M41.3 52.6H27V66.9H41.3V52.6Z" fill="white" stroke="#4088C8" stroke-width="1.4242" stroke-miterlimit="10" stroke-linecap="round" stroke-linejoin="round"/>
<path d="M49.8999 58.3H52.7999" stroke="#132448" stroke-width="1.4242" stroke-miterlimit="10" stroke-linecap="round" stroke-linejoin="round"/>
<path d="M49.8999 52.6H52.7999" stroke="#132448" stroke-width="1.4242" stroke-miterlimit="10" stroke-linecap="round" stroke-linejoin="round"/>
<path d="M49.8999 46.9H52.7999" stroke="#132448" stroke-width="1.4242" stroke-miterlimit="10" stroke-linecap="round" stroke-linejoin="round"/>
<path d="M49.8999 41.1H52.7999" stroke="#132448" stroke-width="1.4242" stroke-miterlimit="10" stroke-linecap="round" stroke-linejoin="round"/>
<path d="M49.8999 35.4H52.7999" stroke="#132448" stroke-width="1.4242" stroke-miterlimit="10" stroke-linecap="round" stroke-linejoin="round"/>
<path d="M49.8999 29.7H52.7999" stroke="#132448" stroke-width="1.4242" stroke-miterlimit="10" stroke-linecap="round" stroke-linejoin="round"/>
<path d="M49.8999 24H52.7999" stroke="#132448" stroke-width="1.4242" stroke-miterlimit="10" stroke-linecap="round" stroke-linejoin="round"/>
<path d="M41.2998 24H44.1998" stroke="#132448" stroke-width="1.4242" stroke-miterlimit="10" stroke-linecap="round" stroke-linejoin="round"/>
<path d="M32.7998 24H35.5998" stroke="#132448" stroke-width="1.4242" stroke-miterlimit="10" stroke-linecap="round" stroke-linejoin="round"/>
<path d="M24.2 24H27" stroke="#132448" stroke-width="1.4242" stroke-miterlimit="10" stroke-linecap="round" stroke-linejoin="round"/>
<path d="M41.2998 29.7H44.1998" stroke="#132448" stroke-width="1.4242" stroke-miterlimit="10" stroke-linecap="round" stroke-linejoin="round"/>
<path d="M32.7998 29.7H35.5998" stroke="#132448" stroke-width="1.4242" stroke-miterlimit="10" stroke-linecap="round" stroke-linejoin="round"/>
<path d="M24.2 29.7H27" stroke="#132448" stroke-width="1.4242" stroke-miterlimit="10" stroke-linecap="round" stroke-linejoin="round"/>
<path d="M41.2998 35.4H44.1998" stroke="#132448" stroke-width="1.4242" stroke-miterlimit="10" stroke-linecap="round" stroke-linejoin="round"/>
<path d="M32.7998 35.4H35.5998" stroke="#132448" stroke-width="1.4242" stroke-miterlimit="10" stroke-linecap="round" stroke-linejoin="round"/>
<path d="M24.2 35.4H27" stroke="#132448" stroke-width="1.4242" stroke-miterlimit="10" stroke-linecap="round" stroke-linejoin="round"/>
<path d="M41.2998 41.1H44.1998" stroke="#132448" stroke-width="1.4242" stroke-miterlimit="10" stroke-linecap="round" stroke-linejoin="round"/>
<path d="M32.7998 41.1H35.5998" stroke="#132448" stroke-width="1.4242" stroke-miterlimit="10" stroke-linecap="round" stroke-linejoin="round"/>
<path d="M24.2 41.1H27" stroke="#132448" stroke-width="1.4242" stroke-miterlimit="10" stroke-linecap="round" stroke-linejoin="round"/>
<path d="M41.2998 46.9H44.1998" stroke="#132448" stroke-width="1.4242" stroke-miterlimit="10" stroke-linecap="round" stroke-linejoin="round"/>
<path d="M32.7998 46.9H35.5998" stroke="#132448" stroke-width="1.4242" stroke-miterlimit="10" stroke-linecap="round" stroke-linejoin="round"/>
<path d="M24.2 46.9H27" stroke="#132448" stroke-width="1.4242" stroke-miterlimit="10" stroke-linecap="round" stroke-linejoin="round"/>
<path d="M15.5999 29.7H18.4999" stroke="#132448" stroke-width="1.4242" stroke-miterlimit="10" stroke-linecap="round" stroke-linejoin="round"/>
<path d="M15.5999 24H18.4999" stroke="#132448" stroke-width="1.4242" stroke-miterlimit="10" stroke-linecap="round" stroke-linejoin="round"/>
<path d="M15.5999 41.1H18.4999" stroke="#132448" stroke-width="1.4242" stroke-miterlimit="10" stroke-linecap="round" stroke-linejoin="round"/>
<path d="M15.5999 35.4H18.4999" stroke="#132448" stroke-width="1.4242" stroke-miterlimit="10" stroke-linecap="round" stroke-linejoin="round"/>
<path d="M15.5999 52.6H18.4999" stroke="#132448" stroke-width="1.4242" stroke-miterlimit="10" stroke-linecap="round" stroke-linejoin="round"/>
<path d="M15.5999 46.9H18.4999" stroke="#132448" stroke-width="1.4242" stroke-miterlimit="10" stroke-linecap="round" stroke-linejoin="round"/>
<path d="M15.5999 58.3H18.4999" stroke="#132448" stroke-width="1.4242" stroke-miterlimit="10" stroke-linecap="round" stroke-linejoin="round"/>
<path d="M29.8999 6.90002V12.6H33.4999" stroke="#132448" stroke-width="1.4242" stroke-miterlimit="10" stroke-linecap="round" stroke-linejoin="round"/>
<path d="M25.7 9.70002C25.7 11.3 24.5 12.5 23.1 12.5C21.6 12.5 20.5 11.2 20.5 9.70002C20.5 8.10002 21.7 6.90002 23.1 6.90002C24.5 6.90002 25.7 8.20002 25.7 9.70002Z" stroke="#132448" stroke-width="1.4242" stroke-miterlimit="10" stroke-linecap="round" stroke-linejoin="round"/>
<path d="M56.3998 6.90002H52.7998V12.6H56.3998" stroke="#132448" stroke-width="1.4242" stroke-miterlimit="10" stroke-linecap="round" stroke-linejoin="round"/>
<path d="M52.7998 9.70001H55.8998" stroke="#132448" stroke-width="1.4242" stroke-miterlimit="10" stroke-linecap="round" stroke-linejoin="round"/>
<path d="M38.3999 12.5V6.90002" stroke="#132448" stroke-width="1.4242" stroke-miterlimit="10" stroke-linecap="round" stroke-linejoin="round"/>
<path d="M12.7 12.6V6.90004H14.8C14.8 6.90004 16.6 6.80004 16.6 8.40004C16.6 10 14.8 10 14.8 10H12.7" stroke="#132448" stroke-width="1.4242" stroke-miterlimit="10" stroke-linecap="round" stroke-linejoin="round"/>
<path d="M47.9999 7.70002C47.4999 7.20002 46.7999 6.90002 46.0999 6.90002C44.5999 6.90002 43.3999 8.20002 43.3999 9.70002C43.3999 11.3 44.5999 12.5 46.0999 12.5C46.8999 12.5 47.5999 12.2 48.0999 11.7" stroke="#132448" stroke-width="1.4242" stroke-miterlimit="10" stroke-linecap="round" stroke-linejoin="round"/>
<path d="M1.09985 66.9H66.8999" stroke="#132448" stroke-width="1.4242" stroke-miterlimit="10" stroke-linecap="round" stroke-linejoin="round"/>
</g>
<defs>
<clipPath id="clip0_98_816">
<rect width="67.2" height="67.2" fill="white" transform="translate(0.399902 0.400024)"/>
</clipPath>
</defs>
</svg>
