<svg width="58" height="76" viewBox="0 0 58 76" fill="none" xmlns="http://www.w3.org/2000/svg">
<g clip-path="url(#clip0_98_887)">
<path d="M53.2999 55.9H6.2999C3.5999 55.9 1.3999 58.1 1.3999 60.8C1.3999 63.5 3.5999 65.7 6.2999 65.7H11.1999H53.2999" fill="white"/>
<path d="M43.3999 23.5H23.8999" stroke="#132448" stroke-width="1.5338" stroke-miterlimit="10" stroke-linecap="round" stroke-linejoin="round"/>
<path d="M33.6999 17.1H23.8999" stroke="#132448" stroke-width="1.5338" stroke-miterlimit="10" stroke-linecap="round" stroke-linejoin="round"/>
<path d="M20.8999 65.6H56.5999" stroke="#132448" stroke-width="1.5338" stroke-miterlimit="10" stroke-linecap="round" stroke-linejoin="round"/>
<path d="M56.5999 55.9H6.2999C3.5999 55.9 1.3999 58.1 1.3999 60.8C1.3999 63.5 3.5999 65.7 6.2999 65.7H11.1999" stroke="#132448" stroke-width="1.5338" stroke-miterlimit="10" stroke-linecap="round" stroke-linejoin="round"/>
<path d="M56.5999 55.9V0.799988H6.2999C3.5999 0.799988 1.3999 2.99999 1.3999 5.69999V60.8" stroke="#132448" stroke-width="1.5338" stroke-miterlimit="10" stroke-linecap="round" stroke-linejoin="round"/>
<path d="M20.9 75.3L16.1 72.1L11.2 75.3V60.7H20.9V75.3Z" fill="white" stroke="#4088C8" stroke-width="1.4242" stroke-miterlimit="10" stroke-linecap="round" stroke-linejoin="round"/>
<path d="M11.0999 0.799988V55.9" stroke="#132448" stroke-width="1.5338" stroke-miterlimit="10" stroke-linecap="round" stroke-linejoin="round"/>
<path d="M53.3 55.9V65.6" stroke="#132448" stroke-width="1.5338" stroke-miterlimit="10" stroke-linecap="round" stroke-linejoin="round"/>
<path d="M43.8999 60.7H53.2999" stroke="#132448" stroke-width="1.5338" stroke-miterlimit="10" stroke-linecap="round" stroke-linejoin="round"/>
<path d="M9.59985 60.7H22.4999" stroke="#132448" stroke-width="1.5338" stroke-miterlimit="10" stroke-linecap="round" stroke-linejoin="round"/>
</g>
<defs>
<clipPath id="clip0_98_887">
<rect width="56.6" height="76" fill="white" transform="translate(0.699951)"/>
</clipPath>
</defs>
</svg>
