<svg width="100" height="56" viewBox="0 0 100 56" fill="none" xmlns="http://www.w3.org/2000/svg">
<g clip-path="url(#clip0_98_857)">
<path d="M68.1999 40.45L59.0999 32.85" stroke="#132448" stroke-width="1.4242" stroke-miterlimit="10" stroke-linecap="round" stroke-linejoin="round"/>
<path d="M59.7999 45.15L52.3999 39.05" stroke="#132448" stroke-width="1.4242" stroke-miterlimit="10" stroke-linecap="round" stroke-linejoin="round"/>
<path d="M19.3999 29.15C21.9999 36.75 43.1999 53.15 43.1999 53.15C48.2999 57.45 52.8999 50.85 48.6999 47.35L45.4999 44.25" stroke="#132448" stroke-width="1.4242" stroke-miterlimit="10" stroke-linecap="round" stroke-linejoin="round"/>
<path d="M45.6 44.05L54.4 51.65C59.4 55.95 64.4 48.95 60.2 45.45L62.4 47.35C66.8 51.05 72.6 44.15 68.2 40.45L68.5 40.75C72.9 44.45 78.7 37.55 74.3 33.85L52.6 16.25C52.6 16.25 48.4 17.85 46.8 17.35C46.8 17.35 40.6 26.95 36 23.65C31.4 20.35 36 6.14995 48.8 4.14995C48.8 4.14995 54.6 2.54995 68.7 9.74995L73.9 8.14995" stroke="#132448" stroke-width="1.4242" stroke-miterlimit="10" stroke-linecap="round" stroke-linejoin="round"/>
<path d="M25.3999 8.04998C25.3999 8.04998 26.0999 6.64998 42.4999 6.34998" stroke="#132448" stroke-width="1.4242" stroke-miterlimit="10" stroke-linecap="round" stroke-linejoin="round"/>
<path d="M75.7 36.15C75.7 36.15 79.6999 37.15 81.8999 34.75" stroke="#132448" stroke-width="1.4242" stroke-miterlimit="10" stroke-linecap="round" stroke-linejoin="round"/>
<path d="M10.6206 1.52386L1.60083 33.3727L16.996 37.7327L26.0158 5.88386L10.6206 1.52386Z" fill="white" stroke="#4088C8" stroke-width="1.4242" stroke-miterlimit="10" stroke-linecap="round" stroke-linejoin="round"/>
<path d="M16.9 7.25L15.7 12.15" stroke="#4088C8" stroke-width="1.4242" stroke-miterlimit="10" stroke-linecap="round" stroke-linejoin="round"/>
<path d="M89.3857 2.38866L73.9905 6.74866L83.0102 38.5975L98.4054 34.2375L89.3857 2.38866Z" fill="white" stroke="#4088C8" stroke-width="1.4242" stroke-miterlimit="10" stroke-linecap="round" stroke-linejoin="round"/>
<path d="M88.3999 26.65L89.6999 31.55" stroke="#4088C8" stroke-width="1.4242" stroke-miterlimit="10" stroke-linecap="round" stroke-linejoin="round"/>
</g>
<defs>
<clipPath id="clip0_98_857">
<rect width="98.2" height="54.3" fill="white" transform="translate(0.899902 0.849976)"/>
</clipPath>
</defs>
</svg>
