<svg width="541" height="46" viewBox="0 0 541 46" fill="none" xmlns="http://www.w3.org/2000/svg">
<path fill-rule="evenodd" clip-rule="evenodd" d="M436.038 30.5429H451.063V15.5176H436.038V30.5429Z" fill="#012064"/>
<path fill-rule="evenodd" clip-rule="evenodd" d="M466.088 30.5429H481.114V15.5176H466.088V30.5429Z" fill="#012064"/>
<path fill-rule="evenodd" clip-rule="evenodd" d="M496.139 30.5429H511.164V15.5176H496.139V30.5429Z" fill="#012064"/>
<path fill-rule="evenodd" clip-rule="evenodd" d="M525.975 30.5429H541V15.5176H525.975V30.5429Z" fill="#012064"/>
<path fill-rule="evenodd" clip-rule="evenodd" d="M451.063 45.5682H466.088V30.5428H451.063V45.5682Z" fill="#012064"/>
<path fill-rule="evenodd" clip-rule="evenodd" d="M481.114 45.5682H496.139V30.5428H481.114V45.5682Z" fill="#012064"/>
<path fill-rule="evenodd" clip-rule="evenodd" d="M511.164 45.5682H526.189V30.5428H511.164V45.5682Z" fill="#012064"/>
<path fill-rule="evenodd" clip-rule="evenodd" d="M451.063 15.5177H466.088V0.492432H451.063V15.5177Z" fill="#012064"/>
<path fill-rule="evenodd" clip-rule="evenodd" d="M481.114 15.5177H496.139V0.492432H481.114V15.5177Z" fill="#012064"/>
<path fill-rule="evenodd" clip-rule="evenodd" d="M511.164 15.5177H526.189V0.492432H511.164V15.5177Z" fill="#012064"/>
<path fill-rule="evenodd" clip-rule="evenodd" d="M375.936 30.5429H390.962V15.5176H375.936V30.5429Z" fill="#012064"/>
<path fill-rule="evenodd" clip-rule="evenodd" d="M345.886 30.5429H360.911V15.5177H345.886V30.5429Z" fill="#012064"/>
<path fill-rule="evenodd" clip-rule="evenodd" d="M405.987 30.5429H421.012V15.5176H405.987V30.5429Z" fill="#012064"/>
<path fill-rule="evenodd" clip-rule="evenodd" d="M360.911 45.5682H375.936V30.5428H360.911V45.5682Z" fill="#012064"/>
<path fill-rule="evenodd" clip-rule="evenodd" d="M390.962 45.5682H405.987V30.5428H390.962V45.5682Z" fill="#012064"/>
<path fill-rule="evenodd" clip-rule="evenodd" d="M421.012 45.5682H436.038V30.5428H421.012V45.5682Z" fill="#012064"/>
<path fill-rule="evenodd" clip-rule="evenodd" d="M360.911 15.5177H375.936V0.492432H360.911V15.5177Z" fill="#012064"/>
<path fill-rule="evenodd" clip-rule="evenodd" d="M390.962 15.5177H405.987V0.492432H390.962V15.5177Z" fill="#012064"/>
<path fill-rule="evenodd" clip-rule="evenodd" d="M421.012 15.5177H436.038V0.492432H421.012V15.5177Z" fill="#012064"/>
<path fill-rule="evenodd" clip-rule="evenodd" d="M256.01 30.5429H271.035V15.5176H256.01V30.5429Z" fill="#012064"/>
<path fill-rule="evenodd" clip-rule="evenodd" d="M286.061 30.5429H301.086V15.5176H286.061V30.5429Z" fill="#012064"/>
<path fill-rule="evenodd" clip-rule="evenodd" d="M316.111 30.5429H331.137V15.5176H316.111V30.5429Z" fill="#012064"/>
<path fill-rule="evenodd" clip-rule="evenodd" d="M271.035 45.5682H286.061V30.5428H271.035V45.5682Z" fill="#012064"/>
<path fill-rule="evenodd" clip-rule="evenodd" d="M301.086 45.5682H316.111V30.5428H301.086V45.5682Z" fill="#012064"/>
<path fill-rule="evenodd" clip-rule="evenodd" d="M331.136 45.5682H346.162V30.5428H331.136V45.5682Z" fill="#012064"/>
<path fill-rule="evenodd" clip-rule="evenodd" d="M271.035 15.5177H286.061V0.492432H271.035V15.5177Z" fill="#012064"/>
<path fill-rule="evenodd" clip-rule="evenodd" d="M301.086 15.5177H316.111V0.492432H301.086V15.5177Z" fill="#012064"/>
<path fill-rule="evenodd" clip-rule="evenodd" d="M331.136 15.5177H346.162V0.492432H331.136V15.5177Z" fill="#012064"/>
<path fill-rule="evenodd" clip-rule="evenodd" d="M195.909 30.5429H210.934V15.5176H195.909V30.5429Z" fill="#012064"/>
<path fill-rule="evenodd" clip-rule="evenodd" d="M165.858 30.5429H180.884V15.5177H165.858V30.5429Z" fill="#012064"/>
<path fill-rule="evenodd" clip-rule="evenodd" d="M225.959 30.5429H240.985V15.5176H225.959V30.5429Z" fill="#012064"/>
<path fill-rule="evenodd" clip-rule="evenodd" d="M180.884 45.5682H195.909V30.5428H180.884V45.5682Z" fill="#012064"/>
<path fill-rule="evenodd" clip-rule="evenodd" d="M210.934 45.5682H225.96V30.5428H210.934V45.5682Z" fill="#012064"/>
<path fill-rule="evenodd" clip-rule="evenodd" d="M240.985 45.5682H256.01V30.5428H240.985V45.5682Z" fill="#012064"/>
<path fill-rule="evenodd" clip-rule="evenodd" d="M180.884 15.5177H195.909V0.492432H180.884V15.5177Z" fill="#012064"/>
<path fill-rule="evenodd" clip-rule="evenodd" d="M210.934 15.5177H225.96V0.492432H210.934V15.5177Z" fill="#012064"/>
<path fill-rule="evenodd" clip-rule="evenodd" d="M240.985 15.5177H256.01V0.492432H240.985V15.5177Z" fill="#012064"/>
<path fill-rule="evenodd" clip-rule="evenodd" d="M75.9824 30.5429H91.0077V15.5176H75.9824V30.5429Z" fill="#012064"/>
<path fill-rule="evenodd" clip-rule="evenodd" d="M106.033 30.5429H121.058V15.5176H106.033V30.5429Z" fill="#012064"/>
<path fill-rule="evenodd" clip-rule="evenodd" d="M136.083 30.5429H151.109V15.5176H136.083V30.5429Z" fill="#012064"/>
<path fill-rule="evenodd" clip-rule="evenodd" d="M91.0076 45.5683H106.033V30.543H91.0076V45.5683Z" fill="#012064"/>
<path fill-rule="evenodd" clip-rule="evenodd" d="M121.058 45.5683H136.084V30.543H121.058V45.5683Z" fill="#012064"/>
<path fill-rule="evenodd" clip-rule="evenodd" d="M151.109 45.5683H166.134V30.543H151.109V45.5683Z" fill="#012064"/>
<path fill-rule="evenodd" clip-rule="evenodd" d="M91.0076 15.5177H106.033V0.492432H91.0076V15.5177Z" fill="#012064"/>
<path fill-rule="evenodd" clip-rule="evenodd" d="M121.058 15.5177H136.084V0.492432H121.058V15.5177Z" fill="#012064"/>
<path fill-rule="evenodd" clip-rule="evenodd" d="M151.109 15.5177H166.134V0.492432H151.109V15.5177Z" fill="#012064"/>
<path fill-rule="evenodd" clip-rule="evenodd" d="M15.8811 30.5429H30.9064V15.5176H15.8811V30.5429Z" fill="#012064"/>
<path fill-rule="evenodd" clip-rule="evenodd" d="M45.9319 30.5429H60.9572V15.5176H45.9319V30.5429Z" fill="#012064"/>
<path fill-rule="evenodd" clip-rule="evenodd" d="M0.855957 45.5683H15.8812V30.543H0.855957V45.5683Z" fill="#012064"/>
<path fill-rule="evenodd" clip-rule="evenodd" d="M30.9065 45.5683H45.9317V30.543H30.9065V45.5683Z" fill="#012064"/>
<path fill-rule="evenodd" clip-rule="evenodd" d="M60.957 45.5683H75.9823V30.543H60.957V45.5683Z" fill="#012064"/>
<path fill-rule="evenodd" clip-rule="evenodd" d="M0.855957 15.5177H15.8812V0.492432H0.855957V15.5177Z" fill="#012064"/>
<path fill-rule="evenodd" clip-rule="evenodd" d="M30.9065 15.5177H45.9317V0.492432H30.9065V15.5177Z" fill="#012064"/>
<path fill-rule="evenodd" clip-rule="evenodd" d="M60.957 15.5177H75.9823V0.492432H60.957V15.5177Z" fill="#012064"/>
</svg>
