<svg width="24" height="21" viewBox="0 0 24 21" fill="none" xmlns="http://www.w3.org/2000/svg">
<path d="M9.33301 3.66667C9.33301 2.95942 9.61396 2.28115 10.1141 1.78105C10.6142 1.28095 11.2924 1 11.9997 1C12.7069 1 13.3852 1.28095 13.8853 1.78105C14.3854 2.28115 14.6663 2.95942 14.6663 3.66667C16.1976 4.3907 17.5029 5.51777 18.4424 6.92707C19.3819 8.33636 19.9203 9.97476 19.9997 11.6667V15.6667C20.1 16.4956 20.3936 17.2894 20.8568 17.9842C21.3199 18.6789 21.9398 19.2552 22.6663 19.6667H1.33301C2.05959 19.2552 2.67942 18.6789 3.14259 17.9842C3.60576 17.2894 3.89933 16.4956 3.99967 15.6667V11.6667C4.07909 9.97476 4.61741 8.33636 5.55694 6.92707C6.49647 5.51777 7.8018 4.3907 9.33301 3.66667" stroke="#032262" stroke-linecap="round" stroke-linejoin="round"/>
</svg>
