<svg width="24" height="25" viewBox="0 0 24 25" fill="none" xmlns="http://www.w3.org/2000/svg">
<path d="M12 21.0339C16.9706 21.0339 21 17.0045 21 12.0339C21 7.06337 16.9706 3.03394 12 3.03394C7.02944 3.03394 3 7.06337 3 12.0339C3 17.0045 7.02944 21.0339 12 21.0339Z" stroke="white" stroke-linecap="round" stroke-linejoin="round"/>
<path d="M12 17.0339V17.0439" stroke="white" stroke-linecap="round" stroke-linejoin="round"/>
<path d="M12 13.534C11.9816 13.2094 12.0692 12.8875 12.2495 12.617C12.4299 12.3465 12.6933 12.1418 13 12.034C13.3759 11.8902 13.7132 11.6612 13.9856 11.3649C14.2579 11.0687 14.4577 10.7132 14.5693 10.3266C14.6809 9.93993 14.7013 9.53267 14.6287 9.13684C14.5562 8.74102 14.3928 8.36743 14.1513 8.04549C13.9099 7.72356 13.597 7.46206 13.2373 7.2816C12.8776 7.10113 12.4809 7.00662 12.0785 7.0055C11.6761 7.00439 11.2789 7.0967 10.9182 7.27517C10.5576 7.45363 10.2432 7.71339 10 8.03398" stroke="white" stroke-linecap="round" stroke-linejoin="round"/>
</svg>
