<svg width="72" height="72" viewBox="0 0 72 72" fill="none" xmlns="http://www.w3.org/2000/svg">
<g clip-path="url(#clip0_98_795)">
<path d="M47.2001 31.45H7.1001L1.1001 52.65H70.9001L64.4001 30.15" fill="white"/>
<path d="M47.2001 31.45H7.1001L1.1001 52.65H70.9001L64.4001 30.15" stroke="#4088C8" stroke-width="1.4242" stroke-miterlimit="10" stroke-linecap="round" stroke-linejoin="round"/>
<path d="M1.1001 58.75H70.9001" stroke="#132448" stroke-width="1.5338" stroke-miterlimit="10" stroke-linecap="round" stroke-linejoin="round"/>
<path d="M1.1001 64.85H70.9001" stroke="#132448" stroke-width="1.5338" stroke-miterlimit="10" stroke-linecap="round" stroke-linejoin="round"/>
<path d="M1.1001 52.65V70.85H70.9001V52.65" stroke="#132448" stroke-width="1.5338" stroke-miterlimit="10" stroke-linecap="round" stroke-linejoin="round"/>
<path d="M3 45.75C3 45.75 10.2 45.55 10.2 52.65L3 45.75Z" fill="white"/>
<path d="M3 45.75C3 45.75 10.2 45.55 10.2 52.65" stroke="#4088C8" stroke-width="1.4242" stroke-miterlimit="10" stroke-linecap="round" stroke-linejoin="round"/>
<path d="M6 37.75C6 37.75 11.4 37.85 13.9 31.65L6 37.75Z" fill="white"/>
<path d="M6 37.75C6 37.75 11.4 37.85 13.9 31.65" stroke="#4088C8" stroke-width="1.4242" stroke-miterlimit="10" stroke-linecap="round" stroke-linejoin="round"/>
<path d="M68.8999 45.75C68.8999 45.75 61.7 45.55 61.7 52.65L68.8999 45.75Z" fill="white"/>
<path d="M68.8999 45.75C68.8999 45.75 61.7 45.55 61.7 52.65" stroke="#4088C8" stroke-width="1.4242" stroke-miterlimit="10" stroke-linecap="round" stroke-linejoin="round"/>
<path d="M46.8 41.45C46.8 44.35 42 46.75 36 46.75C30 46.75 25.2 44.35 25.2 41.45C25.2 38.55 30 36.15 36 36.15C41.9 36.15 46.8 38.55 46.8 41.45Z" fill="white" stroke="#4088C8" stroke-width="1.4242" stroke-miterlimit="10" stroke-linecap="round" stroke-linejoin="round"/>
<path d="M67.1001 24.35C66.0001 30.95 59.7001 35.35 53.2001 34.25C46.6001 33.15 42.2 26.85 43.3 20.35C44.4 13.75 50.7001 9.34995 57.2001 10.45C63.8001 11.55 68.2001 17.75 67.1001 24.35Z" stroke="#132448" stroke-width="1.5338" stroke-miterlimit="10" stroke-linecap="round" stroke-linejoin="round"/>
<path d="M51.1001 26.05C52.0001 27.15 53.5001 28.05 54.6001 28.25C56.5001 28.55 58.2001 27.45 58.5001 25.85C58.8001 24.25 57.3001 23.15 55.6001 22.35C53.9001 21.45 52.5001 20.45 52.7001 18.85C53.0001 17.25 54.7001 16.15 56.6001 16.45C57.9001 16.65 58.8001 17.45 59.3001 18.45" stroke="#132448" stroke-width="1.5338" stroke-miterlimit="10" stroke-linecap="round" stroke-linejoin="round"/>
<path d="M56.9001 14.95L56.6001 16.55" stroke="#132448" stroke-width="1.5338" stroke-miterlimit="10" stroke-linecap="round" stroke-linejoin="round"/>
<path d="M54.6001 28.35L54.4001 29.95" stroke="#132448" stroke-width="1.5338" stroke-miterlimit="10" stroke-linecap="round" stroke-linejoin="round"/>
<path d="M43.2001 23.65C40.8001 25.05 38.0001 25.65 35.0001 25.15C28.4001 24.05 24.0001 17.75 25.1001 11.25C26.2001 4.64998 32.5001 0.249977 39.0001 1.34998C44.5001 2.24998 48.5001 6.74998 49.0001 11.95" stroke="#132448" stroke-width="1.5338" stroke-miterlimit="10" stroke-linecap="round" stroke-linejoin="round"/>
<path d="M32.9001 16.95C33.8001 18.05 35.3001 18.95 36.4001 19.15C38.3001 19.45 40.0001 18.35 40.3001 16.75C40.6001 15.15 39.1001 14.05 37.4001 13.25C35.7001 12.35 34.3001 11.35 34.5001 9.74998C34.8001 8.14998 36.5001 7.04998 38.4001 7.34998C39.7001 7.54998 40.6001 8.34998 41.1001 9.34998" stroke="#132448" stroke-width="1.5338" stroke-miterlimit="10" stroke-linecap="round" stroke-linejoin="round"/>
<path d="M38.7001 5.84998L38.4001 7.44998" stroke="#132448" stroke-width="1.5338" stroke-miterlimit="10" stroke-linecap="round" stroke-linejoin="round"/>
<path d="M36.3999 19.15L36.2 20.85" stroke="#132448" stroke-width="1.5338" stroke-miterlimit="10" stroke-linecap="round" stroke-linejoin="round"/>
</g>
<defs>
<clipPath id="clip0_98_795">
<rect width="71.4" height="71.3" fill="white" transform="translate(0.300049 0.349976)"/>
</clipPath>
</defs>
</svg>
