<svg width="78" height="70" viewBox="0 0 78 70" fill="none" xmlns="http://www.w3.org/2000/svg">
<g clip-path="url(#clip0_98_745)">
<path d="M37.15 40.95C51.85 40.95 64.95 43.85 73.75 48.45C74.55 45.45 74.9501 42.25 74.9501 38.95C74.9501 18.55 58.55 1.84998 38.25 1.84998C17.9501 1.84998 1.55005 18.55 1.55005 39.05C1.55005 41.95 1.85005 44.85 2.55005 47.55C11.25 43.55 23.55 40.95 37.15 40.95Z" stroke="#132448" stroke-width="2"/>
<path d="M73.75 48.55L76.25 60.85C76.35 61.35 76.4501 61.85 76.4501 62.45C76.4501 65.65 73.85 68.15 70.75 68.15C69.45 68.15 68.25 67.65 67.25 66.95C61.65 62.45 51.0501 59.35 38.9501 59.35C27.35 59.35 17.15 62.15 11.35 66.45C10.35 67.55 8.85005 68.15 7.25005 68.15C4.05005 68.15 1.55005 65.55 1.55005 62.45L2.55005 47.55" stroke="#132448" stroke-width="2" stroke-miterlimit="10"/>
<path d="M33.45 34.15H43.0499" stroke="#4088C8" stroke-width="1.6092" stroke-miterlimit="10" stroke-linecap="round" stroke-linejoin="round"/>
<path d="M38.25 30.35C43.4967 30.35 47.75 26.0967 47.75 20.85C47.75 15.6033 43.4967 11.35 38.25 11.35C33.0033 11.35 28.75 15.6033 28.75 20.85C28.75 26.0967 33.0033 30.35 38.25 30.35Z" fill="white" stroke="#4088C8" stroke-width="1.7513" stroke-miterlimit="10" stroke-linecap="round" stroke-linejoin="round"/>
<path d="M45.2501 18.15L40.3501 18.05L38.7501 13.45C38.6501 13.05 38.0501 13.05 37.9501 13.45L36.3501 18.05L31.4501 18.15C31.0501 18.15 30.8501 18.65 31.1501 18.95L35.0501 21.95L33.5501 26.65C33.4501 27.05 33.8501 27.35 34.2501 27.15L38.3501 24.35L42.4501 27.15C42.7501 27.35 43.2501 27.05 43.1501 26.65L41.7501 21.95L45.6501 18.95C45.8501 18.75 45.7501 18.15 45.2501 18.15Z" fill="white" stroke="#4088C8" stroke-width="1.7513" stroke-miterlimit="10" stroke-linecap="round" stroke-linejoin="round"/>
</g>
<defs>
<clipPath id="clip0_98_745">
<rect width="76.9" height="68.3" fill="white" transform="translate(0.550049 0.849976)"/>
</clipPath>
</defs>
</svg>
