<svg width="33" height="33" viewBox="0 0 33 33" fill="none" xmlns="http://www.w3.org/2000/svg">
<g clip-path="url(#clip0_22_629)">
<path d="M16.8234 28.9065C23.4508 28.9065 28.8234 23.5339 28.8234 16.9065C28.8234 10.279 23.4508 4.90646 16.8234 4.90646C10.196 4.90646 4.82343 10.279 4.82343 16.9065C4.82343 23.5339 10.196 28.9065 16.8234 28.9065Z" stroke="#032262" stroke-linecap="round" stroke-linejoin="round"/>
<path d="M16.8234 18.2398C19.0326 18.2398 20.8234 16.4489 20.8234 14.2398C20.8234 12.0307 19.0326 10.2398 16.8234 10.2398C14.6143 10.2398 12.8234 12.0307 12.8234 14.2398C12.8234 16.4489 14.6143 18.2398 16.8234 18.2398Z" stroke="#032262" stroke-linecap="round" stroke-linejoin="round"/>
<path d="M9.04742 26.0385C9.37744 24.9401 10.0527 23.9774 10.9731 23.2931C11.8935 22.6088 13.0099 22.2395 14.1568 22.2398H19.4901C20.6384 22.2394 21.7562 22.6097 22.6773 23.2955C23.5983 23.9814 24.2734 24.9462 24.6021 26.0465" stroke="#032262" stroke-linecap="round" stroke-linejoin="round"/>
</g>
<defs>
<clipPath id="clip0_22_629">
<rect width="32" height="32" fill="white" transform="translate(0.823425 0.906464)"/>
</clipPath>
</defs>
</svg>
